<?xml version="1.0" encoding="utf-8"?>
<!-- Generator: Adobe Illustrator 22.0.0, SVG Export Plug-In . SVG Version: 6.00 Build 0)  -->
<svg version="1.1" xmlns="http://www.w3.org/2000/svg" xmlns:xlink="http://www.w3.org/1999/xlink" x="0px" y="0px"
	 viewBox="0 0 1000 1000" style="enable-background:new 0 0 1000 1000;" xml:space="preserve">
<style type="text/css">
	.st0{display:none;}
	.st1{display:inline;}
	.st2{fill:#FFFFFF;}
</style>
<g id="Layer_1" class="st0">
	<rect class="st1" width="1000" height="1000"/>
</g>
<g id="Layer_2">
	<g>
		<path class="st2" d="M909.581,893.921H90.419C47.73,893.921,13,859.191,13,816.503V288.576c0-42.689,34.73-77.419,77.419-77.419
			h819.162c42.689,0,77.419,34.73,77.419,77.419v527.927C987,859.191,952.271,893.921,909.581,893.921z M90.419,228.32
			c-33.225,0-60.256,27.031-60.256,60.256v527.927c0,33.225,27.031,60.256,60.256,60.256h819.162
			c33.226,0,60.257-27.031,60.257-60.256V288.576c0-33.226-27.031-60.256-60.257-60.256H90.419z"/>
	</g>
	<g>
		<path class="st2" d="M867.933,297.595c-18.088,0-18.118,28.111,0,28.111C886.022,325.706,886.052,297.595,867.933,297.595z"/>
	</g>
	<g>
		<path class="st2" d="M872.619,349.132c-18.088,0-18.118,28.111,0,28.111C890.707,377.243,890.737,349.132,872.619,349.132z"/>
	</g>
	<g>
		<path class="st2" d="M822.643,328.83c-18.088,0-18.118,28.111,0,28.111C840.732,356.941,840.762,328.83,822.643,328.83z"/>
	</g>
	<g>
		<path class="st2" d="M733.177,817.693H189.695c-4.739,0-8.582-3.842-8.582-8.581s3.842-8.581,8.582-8.581h543.481
			c4.739,0,8.581,3.842,8.581,8.581S737.916,817.693,733.177,817.693z"/>
	</g>
	<g>
		<path class="st2" d="M908.871,817.693H806.969c-4.739,0-8.581-3.842-8.581-8.581s3.842-8.581,8.581-8.581h101.902
			c4.739,0,8.581,3.842,8.581,8.581S913.61,817.693,908.871,817.693z"/>
	</g>
	<g>
		<line class="st2" x1="978.419" y1="544.166" x2="604.018" y2="544.166"/>
		<path class="st2" d="M978.419,552.747H604.018c-4.739,0-8.581-3.842-8.581-8.581s3.842-8.581,8.581-8.581h374.401
			c4.739,0,8.581,3.842,8.581,8.581S983.158,552.747,978.419,552.747z"/>
	</g>
	<g>
		<line class="st2" x1="393.083" y1="544.166" x2="21.581" y2="544.166"/>
		<path class="st2" d="M393.083,552.747H21.582c-4.739,0-8.582-3.842-8.582-8.581s3.842-8.581,8.582-8.581h371.502
			c4.739,0,8.582,3.842,8.582,8.581S397.823,552.747,393.083,552.747z"/>
	</g>
	<g>
		<path class="st2" d="M500.051,661.734c-1.392,0-2.782-0.026-4.181-0.079c-27.935-1.057-53.985-13.108-73.354-33.936
			c-19.141-20.581-29.682-47.42-29.682-75.573V469.25c0-11.83,9.624-21.454,21.454-21.454h171.424
			c11.83,0,21.454,9.624,21.454,21.454v85.317c0,29.353-11.677,56.761-32.879,77.176
			C554.108,651.173,527.883,661.734,500.051,661.734z M414.288,464.96c-2.366,0-4.291,1.925-4.291,4.291v82.896
			c0,49.121,38.813,90.553,86.522,92.358c24.668,0.925,48.068-7.989,65.864-25.125c17.812-17.15,27.621-40.168,27.621-64.813V469.25
			c0-2.366-1.926-4.291-4.292-4.291H414.288z"/>
	</g>
	<g>
		<path class="st2" d="M493.541,623.158c-6.259,0-12.747-0.659-19.423-1.989c-4.648-0.925-7.666-5.443-6.741-10.092
			c0.926-4.648,5.444-7.673,10.092-6.74c20.823,4.147,39.082,0.388,52.804-10.872c15.764-12.935,24.446-34.803,24.446-61.576
			c0-4.739,3.842-8.581,8.581-8.581s8.581,3.842,8.581,8.581c0,32.009-10.91,58.589-30.722,74.845
			C527.905,617.609,511.688,623.158,493.541,623.158z"/>
	</g>
	<g>
		<path class="st2" d="M725.572,218.638H708.41v-79.379c0-28.815-28.72-52.257-64.02-52.257H355.609
			c-35.3,0-64.019,23.442-64.019,52.257v79.379h-17.163v-79.379c0-38.278,36.418-69.42,81.182-69.42h288.781
			c44.764,0,81.182,31.142,81.182,69.42V218.638z"/>
	</g>
	<g>
		<path class="st2" d="M652.89,222.302h-17.162V173.25c0-15.998-17.811-29.013-39.701-29.013H403.974
			c-21.891,0-39.701,13.015-39.701,29.013v49.051H347.11V173.25c0-25.461,25.509-46.176,56.864-46.176h192.053
			c31.354,0,56.863,20.715,56.863,46.176V222.302z"/>
	</g>
</g>
</svg>
