<?xml version="1.0" encoding="utf-8"?>
<!-- Generator: Adobe Illustrator 22.0.0, SVG Export Plug-In . SVG Version: 6.00 Build 0)  -->
<svg version="1.1" xmlns="http://www.w3.org/2000/svg" xmlns:xlink="http://www.w3.org/1999/xlink" x="0px" y="0px"
	 viewBox="0 0 1000 1000" style="enable-background:new 0 0 1000 1000;" xml:space="preserve">
<style type="text/css">
	.st0{display:none;}
	.st1{display:inline;}
	.st2{fill:#87BB40;}
	.st3{fill:#FFFFFF;}
	.st4{fill:#FFFFFF;stroke:#87BB40;stroke-width:8.7831;stroke-miterlimit:10;}
	.st5{fill:#FFFFFF;stroke:#87BB40;stroke-width:10.575;stroke-miterlimit:10;}
	.st6{fill:#FFFFFF;stroke:#87BB40;stroke-width:10.575;stroke-linecap:round;stroke-miterlimit:10;}
	.st7{fill:#FFFFFF;stroke:#87BB40;stroke-width:9.974;stroke-linecap:round;stroke-miterlimit:10;}
</style>
<g id="Layer_1" class="st0">
	<rect class="st1" width="1000" height="1000"/>
</g>
<g id="Layer_2">
	<g>
		<g>
			<path class="st2" d="M610.125,773.337H392.883c-4.277,0-8.236-1.937-10.862-5.312c-2.627-3.376-3.53-7.689-2.479-11.835
				l15.551-61.34l9.668,2.451l-15.551,61.34c-0.29,1.142-0.041,2.329,0.683,3.259c0.723,0.929,1.813,1.462,2.991,1.462h217.242
				c1.604,0,2.556-0.908,2.98-1.449c0.425-0.542,1.081-1.683,0.7-3.24l-15.021-61.412l9.688-2.369l15.021,61.412
				c1.011,4.132,0.084,8.421-2.543,11.768C618.325,771.417,614.379,773.337,610.125,773.337z"/>
		</g>
		<g>
			<path class="st2" d="M211.889,642.954h-9.974V362.239c0-7.594,6.198-13.772,13.817-13.772h421.042v9.974H215.732
				c-2.119,0-3.843,1.704-3.843,3.798V642.954z"/>
		</g>
		<g>
			<path class="st2" d="M800.975,642.954H791V362.239c0-2.094-1.712-3.798-3.817-3.798h-86.26v-9.974h86.26
				c7.604,0,13.792,6.178,13.792,13.772V642.954z"/>
		</g>
		<g>
			<path class="st2" d="M772.495,701.063h-542.1c-15.704,0-28.48-12.776-28.48-28.479v-41.611h599.06v41.611
				C800.975,688.287,788.198,701.063,772.495,701.063z M211.889,640.947v31.637c0,10.204,8.302,18.505,18.507,18.505h542.1
				c10.204,0,18.505-8.301,18.505-18.505v-31.637H211.889z"/>
		</g>
	</g>
	<g>
		<path class="st2" d="M373.2,580.402h-50.187c-6.6,0-11.969-5.37-11.969-11.97V492.63c0-6.6,5.369-11.969,11.969-11.969H373.2
			c6.6,0,11.969,5.369,11.969,11.969v75.802C385.168,575.032,379.799,580.402,373.2,580.402z M323.013,490.635
			c-1.1,0-1.995,0.895-1.995,1.995v75.802c0,1.101,0.895,1.995,1.995,1.995H373.2c1.1,0,1.995-0.895,1.995-1.995V492.63
			c0-1.1-0.895-1.995-1.995-1.995H323.013z"/>
	</g>
	<g>
		<path class="st2" d="M480.113,580.402h-50.186c-6.6,0-11.968-5.37-11.968-11.97V422.812c0-6.6,5.369-11.968,11.968-11.968h50.186
			c6.6,0,11.969,5.369,11.969,11.968v145.621C492.082,575.032,486.713,580.402,480.113,580.402z M429.928,420.817
			c-1.1,0-1.995,0.895-1.995,1.995v145.621c0,1.101,0.895,1.995,1.995,1.995h50.186c1.1,0,1.995-0.895,1.995-1.995V422.812
			c0-1.1-0.895-1.995-1.995-1.995H429.928z"/>
	</g>
	<g>
		<path class="st2" d="M587.031,580.402h-50.185c-6.6,0-11.97-5.37-11.97-11.97V452.734c0-6.6,5.37-11.969,11.97-11.969h50.185
			c6.6,0,11.97,5.369,11.97,11.969v115.698C599.001,575.032,593.631,580.402,587.031,580.402z M536.847,450.739
			c-1.101,0-1.995,0.895-1.995,1.995v115.698c0,1.101,0.895,1.995,1.995,1.995h50.185c1.101,0,1.995-0.895,1.995-1.995V452.734
			c0-1.1-0.895-1.995-1.995-1.995H536.847z"/>
	</g>
	<g>
		<g>
			<path class="st2" d="M693.938,580.402h-50.179c-6.602,0-11.973-5.371-11.973-11.973V313.102c0-6.602,5.371-11.972,11.973-11.972
				h50.179c6.602,0,11.973,5.371,11.973,11.972V568.43C705.91,575.031,700.539,580.402,693.938,580.402z M643.759,311.103
				c-1.102,0-1.998,0.896-1.998,1.999V568.43c0,1.102,0.896,1.998,1.998,1.998h50.179c1.102,0,1.998-0.896,1.998-1.998V313.102
				c0-1.102-0.896-1.999-1.998-1.999H643.759z"/>
		</g>
	</g>
	<g>
		<path class="st2" d="M48.27,433.896c-19.448,0-35.27-15.817-35.27-35.259c0-19.453,15.822-35.279,35.27-35.279
			c19.448,0,35.269,15.826,35.269,35.279C83.539,418.079,67.718,433.896,48.27,433.896z M48.27,373.332
			c-13.948,0-25.296,11.352-25.296,25.305c0,13.942,11.348,25.286,25.296,25.286c13.948,0,25.295-11.343,25.295-25.286
			C73.565,384.684,62.218,373.332,48.27,373.332z"/>
	</g>
	<g>
		<line class="st3" x1="955.932" y1="240.304" x2="983.013" y2="240.304"/>
		<path class="st2" d="M983.013,245.291h-27.081c-2.754,0-4.987-2.232-4.987-4.987s2.233-4.987,4.987-4.987h27.081
			c2.754,0,4.987,2.232,4.987,4.987S985.767,245.291,983.013,245.291z"/>
	</g>
	<g>
		<path class="st4" d="M920.799,240.304"/>
	</g>
	<g>
		<path class="st5" d="M982.098,294.283"/>
	</g>
	<g>
		<path class="st6" d="M982.098,254.759"/>
	</g>
	<g>
		<line class="st3" x1="893.718" y1="240.304" x2="920.799" y2="240.304"/>
		<path class="st2" d="M920.8,245.291h-27.082c-2.754,0-4.987-2.232-4.987-4.987s2.233-4.987,4.987-4.987H920.8
			c2.754,0,4.987,2.232,4.987,4.987S923.554,245.291,920.8,245.291z"/>
	</g>
	<g>
		<path class="st6" d="M919.884,254.759"/>
	</g>
	<g>
		<line class="st3" x1="938.366" y1="257.87" x2="938.366" y2="284.951"/>
		<path class="st2" d="M938.365,289.938c-2.754,0-4.987-2.232-4.987-4.987V257.87c0-2.754,2.233-4.987,4.987-4.987
			s4.987,2.232,4.987,4.987v27.081C943.353,287.706,941.119,289.938,938.365,289.938z"/>
	</g>
	<g>
		<path class="st7" d="M923.91,284.036"/>
	</g>
	<g>
		<line class="st3" x1="938.366" y1="195.656" x2="938.366" y2="222.738"/>
		<path class="st2" d="M938.365,227.725c-2.754,0-4.987-2.232-4.987-4.987v-27.082c0-2.754,2.233-4.987,4.987-4.987
			s4.987,2.232,4.987,4.987v27.082C943.353,225.492,941.119,227.725,938.365,227.725z"/>
	</g>
	<g>
		<path class="st6" d="M923.91,221.823"/>
	</g>
	<g>
		<path class="st2" d="M735.75,682.056h-37.194c-2.065,0-3.74-1.675-3.74-3.74s1.675-3.74,3.74-3.74h37.194
			c2.065,0,3.74,1.675,3.74,3.74S737.815,682.056,735.75,682.056z"/>
	</g>
	<g>
		<circle class="st2" cx="749.24" cy="678.315" r="3.584"/>
	</g>
	<g>
		<circle class="st2" cx="761.287" cy="678.315" r="3.584"/>
	</g>
	<g>
		<path class="st2" d="M551.455,753.796H425.189c-2.066,0-3.74-1.675-3.74-3.74s1.674-3.74,3.74-3.74h126.266
			c2.065,0,3.74,1.675,3.74,3.74S553.521,753.796,551.455,753.796z"/>
	</g>
	<g>
		<path class="st2" d="M592.078,753.796h-24.322c-2.065,0-3.74-1.675-3.74-3.74s1.675-3.74,3.74-3.74h24.322
			c2.065,0,3.74,1.675,3.74,3.74S594.144,753.796,592.078,753.796z"/>
	</g>
	<g>
		<path class="st2" d="M245.659,457.706c-0.701,0-1.41-0.197-2.042-0.609c-1.729-1.129-2.216-3.447-1.087-5.177l42.889-65.692
			c1.129-1.73,3.447-2.216,5.177-1.087c1.729,1.129,2.216,3.447,1.087,5.177l-42.889,65.692
			C248.077,457.108,246.879,457.706,245.659,457.706z"/>
	</g>
	<g>
		<path class="st2" d="M233.476,439.745c-0.71,0-1.429-0.202-2.065-0.625c-1.721-1.143-2.19-3.464-1.048-5.185l33.598-50.615
			c1.143-1.721,3.465-2.189,5.185-1.048c1.721,1.143,2.19,3.464,1.048,5.185l-33.598,50.615
			C235.875,439.157,234.687,439.745,233.476,439.745z"/>
	</g>
</g>
</svg>
