<?xml version="1.0" encoding="utf-8"?>
<!-- Generator: Adobe Illustrator 22.0.0, SVG Export Plug-In . SVG Version: 6.00 Build 0)  -->
<svg version="1.1" xmlns="http://www.w3.org/2000/svg" xmlns:xlink="http://www.w3.org/1999/xlink" x="0px" y="0px"
	 viewBox="0 0 1000 1000" style="enable-background:new 0 0 1000 1000;" xml:space="preserve">
<style type="text/css">
	.st0{display:none;}
	.st1{display:inline;}
	.st2{fill:#FFFFFF;}
</style>
<g id="Layer_1" class="st0">
	<rect class="st1" width="1000" height="1000"/>
</g>
<g id="Layer_2">
	<g>
		<path class="st2" d="M894.081,986.794c-44.933,0-81.488-36.556-81.488-81.488s36.556-81.487,81.488-81.487
			s81.488,36.555,81.488,81.487S939.014,986.794,894.081,986.794z M894.081,845.549c-32.95,0-59.758,26.807-59.758,59.757
			c0,32.951,26.808,59.758,59.758,59.758s59.758-26.807,59.758-59.758C953.839,872.355,927.031,845.549,894.081,845.549z"/>
	</g>
	<g>
		<path class="st2" d="M500.419,986.794c-44.933,0-81.488-36.556-81.488-81.488s36.556-81.487,81.488-81.487
			c44.932,0,81.488,36.555,81.488,81.487S545.352,986.794,500.419,986.794z M500.419,845.549c-32.951,0-59.758,26.807-59.758,59.757
			c0,32.951,26.807,59.758,59.758,59.758s59.757-26.807,59.757-59.758C560.177,872.355,533.37,845.549,500.419,845.549z"/>
	</g>
	<g>
		<path class="st2" d="M106.408,986.794c-44.933,0-81.488-36.556-81.488-81.488s36.555-81.487,81.488-81.487
			s81.488,36.555,81.488,81.487S151.341,986.794,106.408,986.794z M106.408,845.549c-32.95,0-59.757,26.807-59.757,59.757
			c0,32.951,26.807,59.758,59.757,59.758s59.757-26.807,59.757-59.758C166.166,872.355,139.358,845.549,106.408,845.549z"/>
	</g>
	<g>
		<path class="st2" d="M904.946,834.684h-21.73V803.2c0-13.112-7.717-25.7-21.729-35.443
			c-14.447-10.046-33.872-15.808-53.293-15.808H500.419v-21.73h307.774c23.75,0,47.696,7.18,65.699,19.697
			c20.025,13.925,31.054,32.848,31.054,53.284V834.684z"/>
	</g>
	<g>
		<path class="st2" d="M117.623,834.684h-21.73V803.2c0-20.437,11.029-39.359,31.054-53.284
			c18.002-12.518,41.949-19.697,65.699-19.697h307.774v21.73H192.645c-19.421,0-38.845,5.762-53.293,15.808
			c-14.012,9.743-21.729,22.331-21.729,35.443V834.684z"/>
	</g>
	<g>
		<path class="st2" d="M827.605,631.166l-573.659-0.001c-74.259,0-137.248-24.102-182.157-69.699
			c-40.11-40.725-62.876-95.753-64.104-154.948c-1.248-60.103,19.828-116.905,59.344-159.945
			c44.408-48.367,108.616-75.625,185.682-78.826c5.698-0.237,10.875-3.262,13.851-8.091l0,0
			c16.726-27.148,38.185-51.478,63.779-72.314c24.593-20.021,52.454-36.391,82.81-48.655
			c60.487-24.438,127.982-30.967,190.051-18.386c59.854,12.132,113.009,41.494,153.718,84.912
			c45.789,48.835,75.134,113.543,87.219,192.326c1.171,7.635,7.978,13.217,16.184,13.273c32.713,0.224,62.915,14.694,87.342,41.848
			c22.072,24.537,37.333,57.519,42.971,92.869c5.849,36.676,0.648,73.345-14.646,103.252
			c-17.605,34.431-48.114,59.729-88.227,73.161C869.482,628.063,849.242,631.166,827.605,631.166z M285.062,171.053
			c-6.77,10.988-18.527,17.869-31.45,18.405C96.616,195.979,27.339,306.313,29.41,406.067
			c2.033,97.948,73.166,203.368,224.537,203.368l573.659,0.001c19.287,0,37.205-2.725,53.256-8.1
			c78.822-26.395,97.302-96.023,88.313-152.386c-9.176-57.541-49.564-116.003-109.002-116.41
			c-18.939-0.129-34.716-13.464-37.514-31.708C801.14,160.549,719.577,66.062,598.885,41.597
			C478.314,17.158,346.336,71.603,285.062,171.053L285.062,171.053z"/>
	</g>
	<g>
		<path class="st2" d="M600.696,570.739h-352.45c-55.643,0-102.881-18.101-136.607-52.344
			c-30.146-30.607-47.256-71.951-48.179-116.415c-0.937-45.141,14.9-87.812,44.593-120.152
			c33.331-36.303,81.453-56.758,139.162-59.155c6.003-0.252,11.057,4.409,11.306,10.405c0.249,5.995-4.409,11.057-10.405,11.306
			C134.029,249.123,83.683,329.166,85.186,401.53c1.474,71.03,53.13,147.479,163.061,147.479h352.45
			c6.001,0,10.865,4.864,10.865,10.865S606.697,570.739,600.696,570.739z"/>
	</g>
	<g>
		<path class="st2" d="M750.159,570.739h-71.243c-6.001,0-10.865-4.864-10.865-10.865s4.864-10.865,10.865-10.865h71.243
			c6.001,0,10.865,4.864,10.865,10.865S756.16,570.739,750.159,570.739z"/>
	</g>
	<g>
		<rect x="489.539" y="620.3" class="st2" width="21.73" height="214.384"/>
	</g>
</g>
</svg>
