<?xml version="1.0" encoding="utf-8"?>
<!-- Generator: Adobe Illustrator 22.0.0, SVG Export Plug-In . SVG Version: 6.00 Build 0)  -->
<svg version="1.1" xmlns="http://www.w3.org/2000/svg" xmlns:xlink="http://www.w3.org/1999/xlink" x="0px" y="0px"
	 viewBox="0 0 1000 1000" style="enable-background:new 0 0 1000 1000;" xml:space="preserve">
<style type="text/css">
	.st0{display:none;}
	.st1{display:inline;}
	.st2{fill:#FFFFFF;}
</style>
<g id="Layer_1" class="st0">
	<rect class="st1" width="1000" height="1000"/>
</g>
<g id="Layer_2">
	<g>
		<path class="st2" d="M229.243,895.377H40.888c-17.564,0-31.854-14.29-31.854-31.854V135.646c0-17.564,14.29-31.853,31.854-31.853
			h188.355c17.564,0,31.854,14.289,31.854,31.853v727.876C261.097,881.087,246.807,895.377,229.243,895.377z M40.888,120.966
			c-8.095,0-14.681,6.585-14.681,14.68v727.876c0,8.095,6.585,14.682,14.681,14.682h188.355c8.095,0,14.681-6.587,14.681-14.682
			V135.646c0-8.095-6.585-14.68-14.681-14.68H40.888z"/>
	</g>
	<g>
		<path class="st2" d="M193.667,825.387H75.405c-4.742,0-8.586-3.844-8.586-8.586s3.844-8.586,8.586-8.586h118.262
			c4.742,0,8.586,3.844,8.586,8.586S198.41,825.387,193.667,825.387z"/>
	</g>
	<g>
		<path class="st2" d="M195.254,757.698H76.992c-4.742,0-8.586-3.844-8.586-8.586s3.844-8.586,8.586-8.586h118.262
			c4.742,0,8.586,3.844,8.586,8.586S199.997,757.698,195.254,757.698z"/>
	</g>
	<g>
		<path class="st2" d="M192.141,314.416c-4.742,0-8.586-3.844-8.586-8.586v-67.752c0-4.742,3.844-8.586,8.586-8.586
			s8.586,3.844,8.586,8.586v67.752C200.727,310.571,196.883,314.416,192.141,314.416z"/>
	</g>
	<g>
		<path class="st2" d="M166.771,685.523h-65.148c-17.765,0-32.218-14.452-32.218-32.218V202.399
			c0-17.765,14.453-32.218,32.218-32.218h81.714c4.742,0,8.586,3.844,8.586,8.586s-3.844,8.586-8.586,8.586h-81.714
			c-8.296,0-15.045,6.75-15.045,15.045v450.907c0,8.296,6.75,15.046,15.045,15.046h65.148c8.47,0,16.784-7.894,16.784-15.937v-53.05
			c0-4.742,3.844-8.586,8.586-8.586s8.586,3.844,8.586,8.586v53.05C200.727,670.053,184.859,685.523,166.771,685.523z"/>
	</g>
	<g>
		<path class="st2" d="M156.531,302.812H113.6c-4.742,0-8.586-3.844-8.586-8.586s3.844-8.586,8.586-8.586h42.932
			c4.742,0,8.586,3.844,8.586,8.586S161.273,302.812,156.531,302.812z"/>
	</g>
	<g>
		<path class="st2" d="M156.531,391.896H113.6c-4.742,0-8.586-3.844-8.586-8.586s3.844-8.586,8.586-8.586h42.932
			c4.742,0,8.586,3.844,8.586,8.586S161.273,391.896,156.531,391.896z"/>
	</g>
	<g>
		<path class="st2" d="M156.531,480.981H113.6c-4.742,0-8.586-3.844-8.586-8.586s3.844-8.586,8.586-8.586h42.932
			c4.742,0,8.586,3.844,8.586,8.586S161.273,480.981,156.531,480.981z"/>
	</g>
	<g>
		<path class="st2" d="M156.531,570.065H113.6c-4.742,0-8.586-3.844-8.586-8.586s3.844-8.586,8.586-8.586h42.932
			c4.742,0,8.586,3.844,8.586,8.586S161.273,570.065,156.531,570.065z"/>
	</g>
	<g>
		<path class="st2" d="M529.25,895.377H340.895c-17.564,0-31.853-14.29-31.853-31.854V135.646c0-17.564,14.289-31.853,31.853-31.853
			H529.25c17.564,0,31.854,14.289,31.854,31.853v727.876C561.104,881.087,546.814,895.377,529.25,895.377z M340.895,120.966
			c-8.095,0-14.68,6.585-14.68,14.68v727.876c0,8.095,6.585,14.682,14.68,14.682H529.25c8.096,0,14.681-6.587,14.681-14.682V135.646
			c0-8.095-6.585-14.68-14.681-14.68H340.895z"/>
	</g>
	<g>
		<path class="st2" d="M493.675,825.387H375.413c-4.742,0-8.586-3.844-8.586-8.586s3.844-8.586,8.586-8.586h118.262
			c4.742,0,8.586,3.844,8.586,8.586S498.417,825.387,493.675,825.387z"/>
	</g>
	<g>
		<path class="st2" d="M495.262,757.698H377c-4.742,0-8.586-3.844-8.586-8.586s3.844-8.586,8.586-8.586h118.262
			c4.742,0,8.586,3.844,8.586,8.586S500.004,757.698,495.262,757.698z"/>
	</g>
	<g>
		<path class="st2" d="M492.147,314.416c-4.742,0-8.586-3.844-8.586-8.586v-67.752c0-4.742,3.844-8.586,8.586-8.586
			s8.586,3.844,8.586,8.586v67.752C500.734,310.571,496.89,314.416,492.147,314.416z"/>
	</g>
	<g>
		<path class="st2" d="M466.778,685.523H401.63c-17.765,0-32.218-14.452-32.218-32.218V202.399
			c0-17.765,14.453-32.218,32.218-32.218h81.714c4.742,0,8.586,3.844,8.586,8.586s-3.844,8.586-8.586,8.586H401.63
			c-8.296,0-15.045,6.75-15.045,15.045v450.907c0,8.296,6.75,15.046,15.045,15.046h65.148c8.47,0,16.783-7.894,16.783-15.937v-53.05
			c0-4.742,3.844-8.586,8.586-8.586s8.586,3.844,8.586,8.586v53.05C500.734,670.053,484.867,685.523,466.778,685.523z"/>
	</g>
	<g>
		<path class="st2" d="M456.539,302.812h-42.932c-4.742,0-8.586-3.844-8.586-8.586s3.844-8.586,8.586-8.586h42.932
			c4.742,0,8.586,3.844,8.586,8.586S461.281,302.812,456.539,302.812z"/>
	</g>
	<g>
		<path class="st2" d="M456.539,391.896h-42.932c-4.742,0-8.586-3.844-8.586-8.586s3.844-8.586,8.586-8.586h42.932
			c4.742,0,8.586,3.844,8.586,8.586S461.281,391.896,456.539,391.896z"/>
	</g>
	<g>
		<path class="st2" d="M456.539,480.981h-42.932c-4.742,0-8.586-3.844-8.586-8.586s3.844-8.586,8.586-8.586h42.932
			c4.742,0,8.586,3.844,8.586,8.586S461.281,480.981,456.539,480.981z"/>
	</g>
	<g>
		<path class="st2" d="M456.539,570.065h-42.932c-4.742,0-8.586-3.844-8.586-8.586s3.844-8.586,8.586-8.586h42.932
			c4.742,0,8.586,3.844,8.586,8.586S461.281,570.065,456.539,570.065z"/>
	</g>
	<g>
		<path class="st2" d="M776.8,907.377c-5.598,0-11.116-1.488-16.071-4.397c-7.338-4.308-12.559-11.214-14.7-19.448L562.749,179.107
			c-2.143-8.234-0.95-16.81,3.357-24.147c4.308-7.337,11.214-12.558,19.448-14.7l182.286-47.428
			c8.232-2.145,16.81-0.95,24.147,3.357c7.338,4.308,12.558,11.215,14.7,19.449l183.279,704.424
			c4.422,16.999-5.809,34.426-22.806,38.848l-182.287,47.428C782.201,907.033,779.491,907.377,776.8,907.377z M775.887,108.972
			c-1.24,0-2.489,0.159-3.722,0.479l-182.286,47.428c-3.795,0.987-6.979,3.394-8.964,6.775c-1.985,3.381-2.534,7.333-1.547,11.128
			l183.279,704.424c0.987,3.795,3.394,6.979,6.775,8.964s7.334,2.534,11.128,1.547l182.287-47.428
			c7.834-2.038,12.549-10.07,10.511-17.904L790.069,119.962c-0.987-3.795-3.394-6.978-6.775-8.963
			C781.011,109.658,778.467,108.972,775.887,108.972z"/>
	</g>
	<g>
		<path class="st2" d="M798.489,830.191c-3.815,0-7.299-2.563-8.304-6.427c-1.194-4.59,1.559-9.277,6.147-10.472l114.452-29.778
			c4.585-1.194,9.278,1.558,10.472,6.147c1.194,4.59-1.559,9.277-6.147,10.472l-114.452,29.778
			C799.933,830.101,799.205,830.191,798.489,830.191z"/>
	</g>
	<g>
		<path class="st2" d="M782.981,764.284c-3.815,0-7.299-2.563-8.304-6.427c-1.194-4.59,1.559-9.277,6.147-10.472l114.451-29.778
			c4.587-1.194,9.278,1.559,10.472,6.147c1.194,4.59-1.559,9.277-6.147,10.472l-114.451,29.778
			C784.425,764.193,783.697,764.284,782.981,764.284z"/>
	</g>
	<g>
		<path class="st2" d="M782.801,306.289c-3.815,0-7.298-2.562-8.304-6.426l-17.061-65.569c-1.194-4.589,1.559-9.278,6.147-10.472
			c4.586-1.195,9.277,1.558,10.472,6.147l17.061,65.569c1.194,4.589-1.559,9.278-6.147,10.472
			C784.244,306.199,783.517,306.289,782.801,306.289z"/>
	</g>
	<g>
		<path class="st2" d="M782.706,688.996c-14.315,0.001-27.417-9.625-31.187-24.109L637.981,228.508
			c-4.473-17.193,5.875-34.819,23.067-39.293l79.081-20.575c4.586-1.198,9.278,1.558,10.472,6.147
			c1.194,4.589-1.559,9.278-6.147,10.472l-79.081,20.575c-8.028,2.089-12.861,10.321-10.772,18.35l113.538,436.378
			c2.089,8.028,10.323,12.862,18.35,10.772l63.049-16.404c8.197-2.133,14.255-11.865,12.23-19.648l-13.358-51.342
			c-1.194-4.589,1.559-9.277,6.147-10.472c4.588-1.193,9.278,1.558,10.472,6.147l13.358,51.342
			c2.143,8.234,0.602,17.435-4.227,25.242c-4.716,7.626-12.115,13.221-20.299,15.35l-63.049,16.404
			C788.104,688.659,785.383,688.996,782.706,688.996z"/>
	</g>
	<g>
		<path class="st2" d="M703.868,314.836c-3.815,0-7.298-2.562-8.304-6.426c-1.194-4.589,1.559-9.278,6.147-10.472l41.549-10.811
			c4.587-1.192,9.277,1.557,10.472,6.147c1.194,4.589-1.559,9.278-6.147,10.472l-41.549,10.811
			C705.312,314.746,704.584,314.836,703.868,314.836z"/>
	</g>
	<g>
		<path class="st2" d="M726.3,401.05c-3.815,0-7.299-2.562-8.304-6.426c-1.194-4.589,1.559-9.278,6.147-10.472l41.549-10.81
			c4.586-1.196,9.278,1.557,10.472,6.147c1.194,4.589-1.559,9.278-6.147,10.472l-41.549,10.81
			C727.743,400.959,727.016,401.05,726.3,401.05z"/>
	</g>
	<g>
		<path class="st2" d="M748.731,487.264c-3.815,0-7.299-2.562-8.304-6.426c-1.194-4.589,1.559-9.278,6.147-10.472l41.549-10.81
			c4.588-1.193,9.278,1.557,10.472,6.147c1.194,4.589-1.559,9.278-6.147,10.472l-41.549,10.81
			C750.175,487.174,749.447,487.264,748.731,487.264z"/>
	</g>
	<g>
		<path class="st2" d="M771.163,573.479c-3.815,0-7.299-2.563-8.304-6.427c-1.194-4.59,1.559-9.278,6.147-10.472l41.549-10.81
			c4.587-1.192,9.278,1.558,10.472,6.147c1.194,4.59-1.559,9.278-6.147,10.472l-41.549,10.81
			C772.606,573.388,771.879,573.479,771.163,573.479z"/>
	</g>
</g>
</svg>
