<?xml version="1.0" encoding="utf-8"?>
<!-- Generator: Adobe Illustrator 22.0.0, SVG Export Plug-In . SVG Version: 6.00 Build 0)  -->
<svg version="1.1" xmlns="http://www.w3.org/2000/svg" xmlns:xlink="http://www.w3.org/1999/xlink" x="0px" y="0px"
	 viewBox="0 0 1000 1000" style="enable-background:new 0 0 1000 1000;" xml:space="preserve">
<style type="text/css">
	.st0{display:none;}
	.st1{display:inline;}
	.st2{fill:#87BB40;}
	.st3{fill:#FFFFFF;}
	.st4{fill:#FFFFFF;stroke:#87BB40;stroke-width:8.2817;stroke-miterlimit:10;}
</style>
<g id="Layer_1" class="st0">
	<rect class="st1" width="1000" height="1000"/>
</g>
<g id="Layer_2">
	<g>
		<g>
			<path class="st2" d="M650.504,179.447H435.52c-2.597,0-4.702-2.105-4.702-4.702s2.105-4.702,4.702-4.702h214.984
				c2.597,0,4.702,2.105,4.702,4.702S653.101,179.447,650.504,179.447z"/>
		</g>
		<g>
			<path class="st2" d="M760.935,179.41h-42.009c-2.597,0-4.702-2.105-4.702-4.702s2.105-4.702,4.702-4.702h42.009
				c2.597,0,4.702,2.105,4.702,4.702S763.531,179.41,760.935,179.41z"/>
		</g>
		<g>
			<path class="st2" d="M312.026,345.103h-42.009c-2.597,0-4.702-2.105-4.702-4.702s2.105-4.702,4.702-4.702h42.009
				c2.597,0,4.702,2.105,4.702,4.702S314.623,345.103,312.026,345.103z"/>
		</g>
		<g>
			<path class="st2" d="M69.488,651.963c-18.337,0-33.255-14.918-33.255-33.255c0-18.338,14.918-33.256,33.255-33.256
				s33.256,14.918,33.256,33.256C102.744,637.045,87.826,651.963,69.488,651.963z M69.488,594.856
				c-13.151,0-23.851,10.7-23.851,23.852s10.7,23.851,23.851,23.851c13.152,0,23.852-10.699,23.852-23.851
				S82.64,594.856,69.488,594.856z"/>
		</g>
		<g>
			<g>
				<path class="st2" d="M787.174,377.499c-2.597,0-4.702-2.105-4.702-4.702v-42.964c0-2.597,2.105-4.702,4.702-4.702
					s4.702,2.105,4.702,4.702v42.964C791.876,375.394,789.771,377.499,787.174,377.499z"/>
			</g>
			<g>
				<path class="st2" d="M851.423,394.003c-0.792,0-1.594-0.2-2.33-0.621c-2.254-1.289-3.037-4.162-1.748-6.416l20.838-36.452
					c1.289-2.256,4.161-3.039,6.416-1.749c2.254,1.289,3.037,4.162,1.748,6.416l-20.838,36.452
					C854.641,393.152,853.055,394.003,851.423,394.003z"/>
			</g>
			<g>
				<path class="st2" d="M898.464,441.522c-1.618,0-3.193-0.835-4.066-2.334c-1.309-2.243-0.551-5.123,1.692-6.431l36.075-21.041
					c2.244-1.311,5.122-0.551,6.431,1.693c1.309,2.243,0.551,5.123-1.692,6.431l-36.075,21.041
					C900.083,441.316,899.268,441.522,898.464,441.522z"/>
			</g>
			<g>
				<path class="st2" d="M916.102,506.427c-2.597,0-4.702-2.104-4.702-4.701c-0.001-2.597,2.104-4.703,4.701-4.703l42.964-0.01
					h0.001c2.597,0,4.702,2.104,4.702,4.701c0.001,2.597-2.104,4.703-4.701,4.703L916.102,506.427L916.102,506.427z"/>
			</g>
		</g>
		<g id="XMLID_355_">
			<g id="XMLID_14_">
				<g>
					<line class="st3" x1="394.983" y1="582.017" x2="356.298" y2="517.481"/>
				</g>
				<g>
					
						<rect x="370.938" y="512.127" transform="matrix(0.8577 -0.5141 0.5141 0.8577 -229.1957 271.3562)" class="st2" width="9.405" height="75.243"/>
				</g>
			</g>
			<g id="XMLID_6_">
				<g>
					<line class="st3" x1="344.013" y1="520.068" x2="336.736" y2="616.586"/>
				</g>
				<g>
					
						<rect x="291.978" y="563.624" transform="matrix(0.0752 -0.9972 0.9972 0.0752 -251.9333 865.011)" class="st2" width="96.793" height="9.405"/>
				</g>
			</g>
			<g id="XMLID_370_">
				<path class="st2" d="M344.771,524.786c-17.526,0-31.784-14.404-31.784-32.109c0-17.706,14.258-32.11,31.784-32.11
					s31.784,14.404,31.784,32.11C376.556,510.382,362.297,524.786,344.771,524.786z M344.771,469.971
					c-12.34,0-22.379,10.186-22.379,22.706c0,12.52,10.04,22.705,22.379,22.705c12.34,0,22.38-10.186,22.38-22.705
					C367.151,480.157,357.112,469.971,344.771,469.971z"/>
			</g>
		</g>
		<g id="XMLID_371_">
			<g id="XMLID_5_">
				<g>
					<line class="st3" x1="587.135" y1="582.021" x2="625.821" y2="517.482"/>
				</g>
				<g>
					
						<rect x="568.855" y="545.049" transform="matrix(0.5142 -0.8577 0.8577 0.5142 -176.8762 787.2365)" class="st2" width="75.246" height="9.405"/>
				</g>
			</g>
			<g id="XMLID_3_">
				<g>
					<line class="st3" x1="638.108" y1="520.07" x2="645.385" y2="616.587"/>
				</g>
				<g>
					
						<rect x="637.044" y="519.933" transform="matrix(0.9972 -0.0752 0.0752 0.9972 -40.909 49.8525)" class="st2" width="9.406" height="96.79"/>
				</g>
			</g>
			<g id="XMLID_372_">
				<path class="st2" d="M637.349,524.786c-17.525,0-31.783-14.404-31.783-32.109c0-17.706,14.258-32.11,31.783-32.11
					c17.526,0,31.784,14.404,31.784,32.11C669.133,510.382,654.875,524.786,637.349,524.786z M637.349,469.971
					c-12.34,0-22.379,10.186-22.379,22.706c0,12.52,10.039,22.705,22.379,22.705s22.38-10.186,22.38-22.705
					C659.729,480.157,649.688,469.971,637.349,469.971z"/>
			</g>
		</g>
		<g id="XMLID_770_">
			<path class="st2" d="M491.06,412.314c-25.172,0-45.651-20.7-45.651-46.145s20.479-46.145,45.651-46.145
				s45.652,20.7,45.652,46.145S516.232,412.314,491.06,412.314z M491.06,329.43c-19.987,0-36.247,16.482-36.247,36.74
				s16.26,36.74,36.247,36.74s36.248-16.482,36.248-36.74S511.047,329.43,491.06,329.43z"/>
		</g>
		<g id="XMLID_18_">
			<path class="st2" d="M667.41,765.946h-352.7c-5.208,0-9.843-3.12-11.81-7.95l-88.211-218.764l8.723-3.518l88.205,218.749
				c0.511,1.257,1.728,2.078,3.094,2.078h352.7c1.365,0,2.582-0.821,3.1-2.092l88.216-218.735l8.723,3.518l-88.222,218.749
				C677.254,762.825,672.618,765.946,667.41,765.946z"/>
		</g>
		<g id="XMLID_12_">
			<path class="st2" d="M645.839,621.292c-2.893,0-5.8-0.174-8.715-0.529c-23.979-2.916-44.749-17.584-55.561-39.235
				l-87.207-166.552l-0.12-0.36c-0.71-2.135-2.611-2.301-3.177-2.301c-0.565,0-2.466,0.166-3.176,2.301l-0.12,0.36l-0.176,0.336
				l-87.072,166.296c-10.771,21.57-31.541,36.237-55.519,39.154c-23.954,2.914-47.606-6.331-63.27-24.731l-51.316-60.281
				l7.161-6.096l51.316,60.281c13.611,15.989,34.164,24.019,54.973,21.492c20.835-2.535,38.885-15.283,48.282-34.102l86.956-166.076
				c1.866-5.081,6.517-8.34,11.961-8.34c5.445,0,10.096,3.259,11.962,8.34l86.914,165.995c9.438,18.899,27.487,31.647,48.323,34.183
				c20.81,2.528,41.361-5.504,54.973-21.492l51.315-60.281l7.162,6.096l-51.315,60.281
				C686.637,612.192,666.713,621.292,645.839,621.292z"/>
		</g>
		<g id="XMLID_1074_">
			<path class="st2" d="M646.246,829.994H335.875c-17.246,0-31.277-14.054-31.277-31.328v-32.039
				c0-5.561,4.519-10.085,10.074-10.085h352.781c5.554,0,10.071,4.522,10.071,10.081v32.043
				C677.523,815.94,663.492,829.994,646.246,829.994z M314.671,765.946c-0.369,0-0.669,0.306-0.669,0.681v32.039
				c0,12.089,9.812,21.924,21.873,21.924h310.372c12.061,0,21.873-9.835,21.873-21.924v-32.043c0-0.373-0.299-0.677-0.667-0.677
				H314.671z"/>
		</g>
		<g id="XMLID_373_">
			<path class="st2" d="M215.467,542.396c-19.143,0-34.716-15.735-34.716-35.077s15.574-35.078,34.716-35.078
				s34.716,15.736,34.716,35.078S234.609,542.396,215.467,542.396z M215.467,481.645c-13.957,0-25.312,11.517-25.312,25.673
				s11.355,25.673,25.312,25.673s25.312-11.517,25.312-25.673S229.424,481.645,215.467,481.645z"/>
		</g>
		<g id="XMLID_369_">
			<path class="st2" d="M766.654,542.396c-19.143,0-34.717-15.735-34.717-35.077s15.574-35.078,34.717-35.078
				s34.716,15.736,34.716,35.078S785.797,542.396,766.654,542.396z M766.654,481.645c-13.957,0-25.313,11.517-25.313,25.673
				s11.355,25.673,25.313,25.673s25.312-11.517,25.312-25.673S780.611,481.645,766.654,481.645z"/>
		</g>
		<g id="XMLID_853_">
			<line class="st3" x1="287.342" y1="706.544" x2="694.779" y2="706.544"/>
			<rect x="287.342" y="701.842" class="st2" width="407.436" height="9.404"/>
		</g>
		<g>
			<line class="st3" x1="928.652" y1="664.085" x2="954.187" y2="664.085"/>
			<path class="st2" d="M954.188,668.787h-25.535c-2.597,0-4.702-2.105-4.702-4.702s2.105-4.702,4.702-4.702h25.535
				c2.597,0,4.702,2.105,4.702,4.702S956.784,668.787,954.188,668.787z"/>
		</g>
		<g>
			<path class="st4" d="M895.525,664.085"/>
		</g>
		<g>
			<line class="st3" x1="869.99" y1="664.085" x2="895.525" y2="664.085"/>
			<path class="st2" d="M895.525,668.787H869.99c-2.597,0-4.702-2.105-4.702-4.702s2.105-4.702,4.702-4.702h25.535
				c2.597,0,4.702,2.105,4.702,4.702S898.122,668.787,895.525,668.787z"/>
		</g>
		<g>
			<line class="st3" x1="912.089" y1="680.649" x2="912.089" y2="706.184"/>
			<path class="st2" d="M912.089,710.886c-2.597,0-4.702-2.105-4.702-4.702v-25.535c0-2.597,2.105-4.702,4.702-4.702
				s4.702,2.105,4.702,4.702v25.535C916.791,708.78,914.686,710.886,912.089,710.886z"/>
		</g>
		<g>
			<line class="st3" x1="912.089" y1="621.987" x2="912.089" y2="647.522"/>
			<path class="st2" d="M912.089,652.225c-2.597,0-4.702-2.105-4.702-4.702v-25.536c0-2.597,2.105-4.702,4.702-4.702
				s4.702,2.105,4.702,4.702v25.536C916.791,650.119,914.686,652.225,912.089,652.225z"/>
		</g>
	</g>
</g>
</svg>
