<?xml version="1.0" encoding="utf-8"?>
<!-- Generator: Adobe Illustrator 22.0.0, SVG Export Plug-In . SVG Version: 6.00 Build 0)  -->
<svg version="1.1" xmlns="http://www.w3.org/2000/svg" xmlns:xlink="http://www.w3.org/1999/xlink" x="0px" y="0px"
	 viewBox="0 0 1000 1000" style="enable-background:new 0 0 1000 1000;" xml:space="preserve">
<style type="text/css">
	.st0{display:none;}
	.st1{display:inline;}
	.st2{fill:none;stroke:#FFFFFF;stroke-width:13.9427;stroke-linecap:round;stroke-miterlimit:10;}
	.st3{fill:#FFFFFF;}
	.st4{fill:none;}
</style>
<g id="Layer_1" class="st0">
	<rect class="st1" width="1000" height="1000"/>
</g>
<g id="Layer_2">
	<line class="st2" x1="987.029" y1="869.551" x2="13.327" y2="869.551"/>
	<path class="st3" d="M109.538,573.824c6.738,0,12.2,5.462,12.2,12.2s-5.462,12.2-12.2,12.2s-12.2-5.462-12.2-12.2
		S102.801,573.824,109.538,573.824 M109.538,559.881c-14.415,0-26.143,11.727-26.143,26.143s11.727,26.143,26.143,26.143
		s26.143-11.728,26.143-26.143S123.953,559.881,109.538,559.881L109.538,559.881z"/>
	<path class="st3" d="M331.953,357.76c6.738,0,12.2,5.462,12.2,12.2c0,6.738-5.462,12.2-12.2,12.2c-6.738,0-12.2-5.462-12.2-12.2
		C319.753,363.222,325.215,357.76,331.953,357.76 M331.953,343.817c-14.415,0-26.143,11.728-26.143,26.143
		c0,14.415,11.728,26.143,26.143,26.143c14.415,0,26.143-11.728,26.143-26.143C358.095,355.545,346.368,343.817,331.953,343.817
		L331.953,343.817z"/>
	<path class="st3" d="M542.471,587.028c6.738,0,12.2,5.462,12.2,12.2s-5.462,12.2-12.2,12.2s-12.2-5.462-12.2-12.2
		S535.734,587.028,542.471,587.028 M542.471,573.085c-14.415,0-26.143,11.728-26.143,26.143s11.727,26.143,26.143,26.143
		s26.143-11.727,26.143-26.143S556.886,573.085,542.471,573.085L542.471,573.085z"/>
	<path class="st3" d="M855.395,259.263c6.738,0,12.2,5.462,12.2,12.2s-5.462,12.2-12.2,12.2s-12.2-5.462-12.2-12.2
		S848.657,259.263,855.395,259.263 M855.395,241.834c-16.337,0-29.628,13.291-29.628,29.628s13.291,29.628,29.628,29.628
		s29.628-13.291,29.628-29.628S871.732,241.834,855.395,241.834L855.395,241.834z"/>
	<polyline class="st2" points="855.395,293.993 855.395,869.551 109.538,869.551 109.538,609.591 	"/>
	<line class="st2" x1="558.645" y1="582.655" x2="840.408" y2="286.849"/>
	<line class="st2" x1="347.591" y1="386.333" x2="524.915" y2="580.937"/>
	<line class="st2" x1="123.131" y1="566.807" x2="316.566" y2="384.837"/>
	<path class="st2" d="M862.229,136.22L572.891,443.081c-4.072,4.319-10.919,4.386-15.075,0.147L352.971,234.315
		c-3.884-3.961-10.184-4.2-14.357-0.545L108.592,435.245"/>
	<line class="st2" x1="609.335" y1="825.267" x2="719.487" y2="825.267"/>
	<line class="st2" x1="163.707" y1="825.267" x2="563.438" y2="825.267"/>
	<g>
		<g>
			<path class="st4" d="M111.969,618.991"/>
			<path class="st4" d="M169.789,869.51h632.096c0.786,0,1.569,0,2.352-0.085c30.915-1.215,55.47-26.558,55.47-57.731"/>
		</g>
		<g>
			<g>
				<path class="st4" d="M865.148,811.734c0,31.177-24.554,56.516-55.469,57.731"/>
			</g>
		</g>
		<g>
			<g>
				<path class="st3" d="M842.065,112.532l44.217,46.778c1.887,1.996,5.234,1.127,5.911-1.535l15.614-61.401
					c0.648-2.548-1.651-4.869-4.206-4.245l-59.831,14.623C841.173,107.387,840.228,110.589,842.065,112.532z"/>
			</g>
		</g>
	</g>
</g>
</svg>
