<?xml version="1.0" encoding="utf-8"?>
<!-- Generator: Adobe Illustrator 22.0.0, SVG Export Plug-In . SVG Version: 6.00 Build 0)  -->
<svg version="1.1" xmlns="http://www.w3.org/2000/svg" xmlns:xlink="http://www.w3.org/1999/xlink" x="0px" y="0px"
	 viewBox="0 0 1000 1000" style="enable-background:new 0 0 1000 1000;" xml:space="preserve">
<style type="text/css">
	.st0{display:none;}
	.st1{display:inline;}
	.st2{fill:#87BB40;}
</style>
<g id="Layer_1" class="st0">
	<rect class="st1" width="1000" height="1000"/>
</g>
<g id="Layer_2">
	<g>
		<g>
			<g>
				<path class="st2" d="M702.362,991.39H293.293c-6.558,0-12.908-2.745-17.422-7.531c-4.476-4.745-6.825-11.175-6.446-17.641
					c2.676-45.727,26.119-84.443,59.726-98.635c20.405-8.618,42.548-7.656,64.453,2.418c-8.232-19.42-12.553-42.317-7.61-65.186
					c5.455-25.356,31.148-56.097,57.274-68.519c14.221-6.762,27.389-7.457,38.079-2.01l-7.554,14.824
					c-7.473-3.809-16.84-0.901-23.381,2.211c-21.299,10.126-43.802,36.762-48.155,56.999c-6.753,31.248,7.315,63.037,22.732,82.37
					l6.271,7.863l-14.238,7.493l-4.293-3.714c-26.04-22.527-53.424-29.426-77.106-19.425
					c-27.816,11.746-47.281,44.828-49.589,84.281c-0.114,1.939,0.576,3.806,1.941,5.253c1.405,1.489,3.293,2.31,5.319,2.31h409.069
					c2.025,0,3.915-0.82,5.319-2.31c1.365-1.447,2.055-3.313,1.94-5.254c-2.313-39.451-21.783-72.532-49.603-84.279
					c-23.686-10.003-51.069-3.105-77.106,19.417l-4.289,3.71l-14.234-7.474l6.271-7.871c15.414-19.348,29.48-51.145,22.733-82.363
					c-3.834-17.823-22.114-41.279-41.618-53.408c-10.149-6.313-19.575-8.825-26.534-7.076l-4.055-16.135
					c11.541-2.9,25.157,0.24,39.375,9.083c23.246,14.456,44.353,41.983,49.096,64.03c4.938,22.852,0.615,45.75-7.619,65.176
					c21.904-10.073,44.047-11.031,64.453-2.416c33.609,14.192,57.059,52.907,59.74,98.633c0.378,6.468-1.972,12.897-6.447,17.643
					C715.271,988.645,708.92,991.39,702.362,991.39z"/>
			</g>
		</g>
		<g>
			<g>
				<g>
					<path class="st2" d="M723.34,827.475l-7.978-19.299c-22.811-55.181-67.989-100.089-123.952-123.209l6.352-15.377
						c53.371,22.05,97.608,62.603,123.972,112.968c5.713-20.351,8.447-41.364,8.146-62.712
						c-1.018-72.999-38.244-141.348-99.58-182.835l9.32-13.781c31.805,21.513,58.382,50.445,76.86,83.673
						c19.1,34.346,29.485,73.32,30.034,112.71c0.43,30.352-4.852,60.082-15.697,88.364L723.34,827.475z"/>
				</g>
				<g>
					<path class="st2" d="M279.62,833.463l-8.001-19.302c-11.605-27.993-17.706-57.562-18.133-87.883
						c-0.547-39.404,8.752-78.652,26.892-113.504c17.547-33.714,43.312-63.353,74.509-85.713l9.692,13.521
						c-60.16,43.12-95.471,112.451-94.458,185.463c0.3,21.329,3.62,42.259,9.889,62.457
						c24.981-51.063,68.083-92.786,120.815-116.258l6.766,15.199c-55.29,24.61-99.216,70.718-120.516,126.499L279.62,833.463z"/>
				</g>
			</g>
			<g>
				<g>
					<path class="st2" d="M411.582,713.546l-3.258-6.258c-26.345-50.602-45.447-108.471-56.776-171.999
						c-6.948-38.963-10.761-79.441-11.333-120.309c-2.173-156.175,43.07-300.661,121.026-386.5
						c7.533-8.295,17.803-12.948,28.917-13.101c11.119-0.152,21.508,4.216,29.267,12.302
						c80.325,83.708,129.569,226.936,131.729,383.132c1.497,106.961-19.78,211.371-59.911,293.997l-3.083,6.348l-6.765-2.007
						c-17.31-5.133-35.148-8.559-53.022-10.182l1.504-16.568c16.614,1.508,33.195,4.483,49.395,8.858
						c37.082-79.323,56.671-178.502,55.248-280.215c-2.103-152.092-49.615-291.099-127.098-371.845
						c-4.531-4.722-10.57-7.267-17.035-7.186c-6.453,0.089-12.43,2.806-16.83,7.65c-75.193,82.798-118.822,223.016-116.706,375.083
						c0.559,39.969,4.286,79.542,11.077,117.621c10.571,59.279,28.052,113.42,51.985,161.041
						c16.056-4.813,32.557-8.237,49.15-10.193l1.947,16.523c-17.851,2.104-35.588,6.011-52.721,11.612L411.582,713.546z"/>
				</g>
			</g>
			<g>
				<g>
					<path class="st2" d="M501.421,824.66l-7.28-11.673c-20.671-33.146-34.136-98.57-35.14-170.74l-0.014-1.086
						c-0.079-7.097,2.705-13.723,7.837-18.658c5.24-5.04,12.466-7.711,19.815-7.347c1.925,0.097,3.855,0.147,5.742,0.151
						c0.836-0.07,1.497-0.075,2.262-0.016c0.783-0.06,1.462-0.052,2.21,0.011c0.116-0.007,0.231-0.018,0.347-0.026
						c0.44-0.033,0.878-0.063,1.321-0.073l0.157-0.004l0.157,0.003c0.588,0.008,1.161,0.033,1.731,0.061
						c0.449,0.021,0.896,0.045,1.358,0.045c2.755,0,5.569-0.092,8.366-0.273c7.377-0.476,14.687,2.098,20.068,7.071
						c5.33,4.926,8.32,11.622,8.419,18.856l0.003,0.205c1.02,72.118-10.632,137.881-30.406,171.624L501.421,824.66z
						 M485.281,631.759c-2.601,0-5.101,0.982-6.926,2.736c-1.79,1.721-2.76,4.022-2.733,6.481l0.014,1.029
						c0.821,59.031,10.506,114.613,25.31,148.134c13.891-33.935,22.034-89.753,21.201-148.738l-0.003-0.211
						c-0.036-2.629-1.128-5.067-3.075-6.866c-2.049-1.895-4.842-2.871-7.697-2.688c-3.893,0.253-7.849,0.421-11.584,0.245
						c-0.331-0.016-0.663-0.032-1.001-0.04c-0.114,0.007-0.227,0.017-0.34,0.025c-0.905,0.068-1.837,0.106-2.768,0.033
						c-0.761,0.061-1.392,0.054-2.075,0c-0.369,0.028-0.697,0.045-1.03,0.045c-2.227,0-4.505-0.058-6.773-0.173
						C485.628,631.763,485.454,631.759,485.281,631.759z"/>
				</g>
			</g>
			<g>
				<g>
					<path class="st2" d="M371.865,191.82l4.136-11.992c23.492-68.109,57.395-125.033,98.043-164.618
						c8.917-8.681,23.067-8.878,32.219-0.446c41.735,38.452,77.212,94.457,102.594,161.958l4.474,11.896l-12.692-0.662
						c-35.922-1.873-72.296-2.592-108.11-2.137c-35.069,0.473-71.414,2.159-108.017,5.013L371.865,191.82z M490.393,25.235
						c-1.724,0-3.447,0.633-4.742,1.895c-36.417,35.463-67.267,85.817-89.646,146.167c32.628-2.308,64.962-3.688,96.304-4.111
						c31.919-0.405,64.272,0.112,96.362,1.539C564.618,110.96,532.377,61.446,494.99,27
						C493.71,25.822,492.052,25.235,490.393,25.235z"/>
				</g>
			</g>
			<g>
				<path class="st2" d="M554.859,154.074c-2.475,0-4.815-1.482-5.793-3.919c-13.988-34.892-32.865-63.916-54.592-83.933
					c-2.534-2.335-2.695-6.282-0.361-8.816c2.335-2.534,6.282-2.694,8.816-0.361c23.084,21.269,43.043,51.86,57.719,88.467
					c1.282,3.198-0.271,6.83-3.47,8.112C556.418,153.929,555.632,154.074,554.859,154.074z"/>
			</g>
		</g>
		<g>
			<g>
				<path class="st2" d="M495.677,356.621c-33.713,0-61.359-26.759-61.811-60.037c-0.456-33.54,26.902-61.209,60.984-61.68h0.004
					c0.283-0.003,0.568-0.005,0.85-0.005c33.687,0,61.327,26.75,61.795,60.018c0.229,16.272-6.011,31.66-17.572,43.329
					c-11.52,11.627-26.933,18.151-43.4,18.371C496.245,356.619,495.959,356.621,495.677,356.621z M495.076,251.54
					c-24.91,0.346-44.905,20.451-44.574,44.819c0.328,24.18,20.537,43.624,45.178,43.626c0.209,0,0.416-0.001,0.626-0.004
					c12.079-0.161,23.373-4.936,31.803-13.444c8.392-8.47,12.922-19.616,12.756-31.385
					C540.521,270.771,520.011,251.185,495.076,251.54L495.076,251.54z"/>
			</g>
		</g>
		<g>
			<g>
				<path class="st2" d="M522.813,290.87c-2.497,0-4.854-1.51-5.815-3.977c-3.53-9.062-12.212-15.051-21.619-14.932
					c-0.029,0-0.059,0-0.089,0c-3.405,0-6.188-2.736-6.236-6.152c-0.048-3.445,2.706-6.277,6.151-6.325
					c14.548-0.19,28.01,8.991,33.419,22.88c1.251,3.21-0.339,6.827-3.549,8.078C524.331,290.732,523.565,290.87,522.813,290.87z"/>
			</g>
		</g>
		<g>
			<g>
				<path class="st2" d="M495.651,568.032c-38.329,0.001-69.775-30.423-70.304-68.267c-0.259-18.486,6.842-35.974,19.993-49.242
					c13.113-13.229,30.654-20.651,49.393-20.9l0,0c0.319-0.004,0.645-0.006,0.963-0.006c38.325,0,69.778,30.412,70.324,68.232
					c0.25,18.519-6.851,36.02-19.995,49.288c-13.106,13.229-30.643,20.648-49.379,20.889
					C496.313,568.03,495.981,568.032,495.651,568.032z M494.954,446.259c-14.351,0.19-27.774,5.864-37.798,15.977
					c-9.98,10.069-15.369,23.314-15.174,37.297c0.406,29,24.842,52.227,54.442,51.858c14.352-0.185,27.767-5.854,37.782-15.963
					c9.977-10.07,15.367-23.334,15.179-37.346C548.967,469.116,524.522,445.856,494.954,446.259L494.954,446.259z"/>
			</g>
		</g>
		<g>
			<g>
				<path class="st2" d="M525.868,495.226c-2.571,0-4.979-1.602-5.884-4.166c-2.5-7.088-8.409-12.806-15.808-15.295
					c-2.835-0.954-5.812-1.419-8.844-1.378c-3.412,0.049-6.275-2.712-6.319-6.157c-0.045-3.445,2.712-6.274,6.157-6.319
					c4.443-0.063,8.813,0.625,12.986,2.029c11.008,3.705,19.829,12.292,23.596,22.971c1.146,3.25-0.56,6.813-3.809,7.959
					C527.257,495.111,526.557,495.226,525.868,495.226z"/>
			</g>
		</g>
	</g>
</g>
</svg>
