<?xml version="1.0" encoding="utf-8"?>
<!-- Generator: Adobe Illustrator 22.0.0, SVG Export Plug-In . SVG Version: 6.00 Build 0)  -->
<svg version="1.1" xmlns="http://www.w3.org/2000/svg" xmlns:xlink="http://www.w3.org/1999/xlink" x="0px" y="0px"
	 viewBox="0 0 1000 1000" style="enable-background:new 0 0 1000 1000;" xml:space="preserve">
<style type="text/css">
	.st0{display:none;}
	.st1{display:inline;}
	.st2{fill:#FFFFFF;}
</style>
<g id="Layer_1" class="st0">
	<rect class="st1" width="1000" height="1000"/>
</g>
<g id="Layer_2">
	<g>
		<path class="st2" d="M797.24,943.888H208.18c-32.679,0-59.265-26.586-59.265-59.265V94.265C148.915,61.586,175.501,35,208.18,35
			H797.24c32.679,0,59.266,26.586,59.266,59.265v790.358C856.506,917.302,829.919,943.888,797.24,943.888z M208.18,56.551
			c-20.796,0-37.714,16.918-37.714,37.714v790.358c0,20.796,16.918,37.714,37.714,37.714H797.24
			c20.796,0,37.715-16.918,37.715-37.714V94.265c0-20.796-16.919-37.714-37.715-37.714H208.18z"/>
	</g>
	<g>
		<path class="st2" d="M323.589,486.427h-24.237c-23.767,0-43.102-19.335-43.102-43.102v-24.237
			c0-23.767,19.335-43.102,43.102-43.102h24.237c23.766,0,43.102,19.335,43.102,43.102v24.237
			C366.691,467.092,347.355,486.427,323.589,486.427z M299.353,397.538c-11.883,0-21.551,9.668-21.551,21.551v24.237
			c0,11.883,9.668,21.551,21.551,21.551h24.237c11.883,0,21.551-9.667,21.551-21.551v-24.237c0-11.883-9.667-21.551-21.551-21.551
			H299.353z"/>
	</g>
	<g>
		<path class="st2" d="M517.972,486.427h-24.237c-23.767,0-43.102-19.335-43.102-43.102v-24.237
			c0-23.767,19.335-43.102,43.102-43.102h24.237c23.767,0,43.102,19.335,43.102,43.102v24.237
			C561.073,467.092,541.738,486.427,517.972,486.427z M493.734,397.538c-11.883,0-21.551,9.668-21.551,21.551v24.237
			c0,11.883,9.668,21.551,21.551,21.551h24.237c11.883,0,21.551-9.667,21.551-21.551v-24.237c0-11.883-9.668-21.551-21.551-21.551
			H493.734z"/>
	</g>
	<g>
		<path class="st2" d="M712.314,486.427h-24.237c-23.767,0-43.102-19.335-43.102-43.102v-24.237
			c0-23.767,19.335-43.102,43.102-43.102h24.237c23.767,0,43.102,19.335,43.102,43.102v24.237
			C755.416,467.092,736.081,486.427,712.314,486.427z M688.077,397.538c-11.883,0-21.551,9.668-21.551,21.551v24.237
			c0,11.883,9.668,21.551,21.551,21.551h24.237c11.883,0,21.551-9.667,21.551-21.551v-24.237c0-11.883-9.668-21.551-21.551-21.551
			H688.077z"/>
	</g>
	<g>
		<path class="st2" d="M323.589,643.026h-24.237c-23.767,0-43.102-19.336-43.102-43.103v-24.236
			c0-23.767,19.335-43.102,43.102-43.102h24.237c23.766,0,43.102,19.335,43.102,43.102v24.236
			C366.691,623.69,347.355,643.026,323.589,643.026z M299.353,554.137c-11.883,0-21.551,9.668-21.551,21.551v24.236
			c0,11.884,9.668,21.552,21.551,21.552h24.237c11.883,0,21.551-9.668,21.551-21.552v-24.236c0-11.883-9.667-21.551-21.551-21.551
			H299.353z"/>
	</g>
	<g>
		<path class="st2" d="M517.972,643.026h-24.237c-23.767,0-43.102-19.336-43.102-43.103v-24.236
			c0-23.767,19.335-43.102,43.102-43.102h24.237c23.767,0,43.102,19.335,43.102,43.102v24.236
			C561.073,623.69,541.738,643.026,517.972,643.026z M493.734,554.137c-11.883,0-21.551,9.668-21.551,21.551v24.236
			c0,11.884,9.668,21.552,21.551,21.552h24.237c11.883,0,21.551-9.668,21.551-21.552v-24.236c0-11.883-9.668-21.551-21.551-21.551
			H493.734z"/>
	</g>
	<g>
		<path class="st2" d="M712.314,643.026h-24.237c-23.767,0-43.102-19.336-43.102-43.103v-24.236
			c0-23.767,19.335-43.102,43.102-43.102h24.237c23.767,0,43.102,19.335,43.102,43.102v24.236
			C755.416,623.69,736.081,643.026,712.314,643.026z M688.077,554.137c-11.883,0-21.551,9.668-21.551,21.551v24.236
			c0,11.884,9.668,21.552,21.551,21.552h24.237c11.883,0,21.551-9.668,21.551-21.552v-24.236c0-11.883-9.668-21.551-21.551-21.551
			H688.077z"/>
	</g>
	<g>
		<path class="st2" d="M323.589,799.621h-24.237c-23.767,0-43.102-19.336-43.102-43.103v-24.236
			c0-23.767,19.335-43.103,43.102-43.103h24.237c23.766,0,43.102,19.336,43.102,43.103v24.236
			C366.691,780.285,347.355,799.621,323.589,799.621z M299.353,710.73c-11.883,0-21.551,9.668-21.551,21.552v24.236
			c0,11.884,9.668,21.552,21.551,21.552h24.237c11.883,0,21.551-9.668,21.551-21.552v-24.236c0-11.884-9.667-21.552-21.551-21.552
			H299.353z"/>
	</g>
	<g>
		<path class="st2" d="M517.972,799.621h-24.237c-23.767,0-43.102-19.336-43.102-43.103v-24.236
			c0-23.767,19.335-43.103,43.102-43.103h24.237c23.767,0,43.102,19.336,43.102,43.103v24.236
			C561.073,780.285,541.738,799.621,517.972,799.621z M493.734,710.73c-11.883,0-21.551,9.668-21.551,21.552v24.236
			c0,11.884,9.668,21.552,21.551,21.552h24.237c11.883,0,21.551-9.668,21.551-21.552v-24.236c0-11.884-9.668-21.552-21.551-21.552
			H493.734z"/>
	</g>
	<g>
		<path class="st2" d="M712.314,799.621h-24.237c-23.767,0-43.102-19.336-43.102-43.103v-24.236
			c0-23.767,19.335-43.103,43.102-43.103h24.237c23.767,0,43.102,19.336,43.102,43.103v24.236
			C755.416,780.285,736.081,799.621,712.314,799.621z M688.077,710.73c-11.883,0-21.551,9.668-21.551,21.552v24.236
			c0,11.884,9.668,21.552,21.551,21.552h24.237c11.883,0,21.551-9.668,21.551-21.552v-24.236c0-11.884-9.668-21.552-21.551-21.552
			H688.077z"/>
	</g>
	<g>
		<path class="st2" d="M707.444,297.204H304.261c-26.737,0-48.49-21.752-48.49-48.49V171.49c0-26.737,21.752-48.49,48.49-48.49
			h403.183c26.737,0,48.49,21.752,48.49,48.49l-0.001,77.224C755.934,275.451,734.182,297.204,707.444,297.204z M304.261,144.551
			c-14.854,0-26.939,12.085-26.939,26.939v77.224c0,14.854,12.085,26.939,26.939,26.939h403.183
			c14.854,0,26.938-12.085,26.938-26.939l0.001-77.224c0-14.854-12.085-26.939-26.939-26.939H304.261z"/>
	</g>
	<g>
		<circle class="st2" cx="422.6" cy="218.637" r="9.236"/>
	</g>
	<g>
		<circle class="st2" cx="382.696" cy="218.637" r="9.236"/>
	</g>
	<g>
		<circle class="st2" cx="334.392" cy="218.637" r="9.236"/>
	</g>
	<g>
		<path class="st2" d="M619.107,191.609H429.189c-5.951,0-10.775-4.824-10.775-10.775s4.824-10.775,10.775-10.775h189.918
			c5.951,0,10.775,4.824,10.775,10.775S625.059,191.609,619.107,191.609z"/>
	</g>
	<g>
		<path class="st2" d="M696.107,191.609h-26.04c-5.951,0-10.775-4.824-10.775-10.775s4.824-10.775,10.775-10.775h26.04
			c5.951,0,10.775,4.824,10.775,10.775S702.059,191.609,696.107,191.609z"/>
	</g>
	<g>
		<path class="st2" d="M636.773,883.176H354.771c-5.951,0-10.775-4.824-10.775-10.775s4.824-10.775,10.775-10.775h282.002
			c5.951,0,10.775,4.824,10.775,10.775S642.725,883.176,636.773,883.176z"/>
	</g>
	<g>
		<path class="st2" d="M744.641,883.176H687.62c-5.951,0-10.775-4.824-10.775-10.775s4.824-10.775,10.775-10.775h57.021
			c5.951,0,10.775,4.824,10.775,10.775S750.592,883.176,744.641,883.176z"/>
	</g>
</g>
</svg>
