<svg id="Layer_1" data-name="Layer 1" xmlns="http://www.w3.org/2000/svg" viewBox="0 0 817.96 216"><defs><style>.cls-1{fill:#87bb40;}.cls-2{font-size:164.94px;fill:#333;font-family:Spectral-Regular, Spectral;}.cls-3{letter-spacing:-0.05em;}.cls-4{letter-spacing:0.01em;}</style></defs><title>Verpura</title><path class="cls-1" d="M70.77,3.72C128.62-11.77,191,22.27,205.77,84.2c14.92,62.47-25.19,118.2-78.39,131.8,3.42-1.32,6.82-2.7,10.12-4.31A110,110,0,0,0,187,164.4a109.68,109.68,0,0,0,9.47-80,40.67,40.67,0,0,0-8.11-16.08c-5.18-6-12-7.45-19.17-4.17-6,2.74-10.5,7.19-14.18,12.55-5.25,7.63-8.88,16.08-12.36,24.6-6,14.78-11.7,29.72-18.49,44.18-2.08,4.45-4.27,8.84-6.34,13.1-1.7-1.58-3.39-3.06-5-4.63C96,137.23,83,117.84,72.76,96.56c-3.72-7.71-6.26-15.89-9-24A99.41,99.41,0,0,0,57,56.34c-5.25-9.52-15.69-7.49-20.92-2.87-3.76,3.32-5.47,7.67-6.06,12.53-1.34,11.11,2.45,20.62,9.17,29.2,5.25,6.7,11.57,12.33,18,17.85,9.11,7.83,18.48,15.35,26.9,23.93,10.15,10.35,18.49,21.88,23.59,35.58a15.53,15.53,0,0,0,2.27,4.05c2.93,3.79,7.08,4,10.65.81,4.36-3.95,7-9,9-14.34,4.16-11,8.3-22,12.92-32.87,5.33-12.52,10.8-25,17.85-36.64a44.9,44.9,0,0,1,7-9.3,9.36,9.36,0,0,1,3.52-2.35,3.07,3.07,0,0,1,3.51,1,7.94,7.94,0,0,1,1.94,4.29c.45,3.47,1.53,6.81,2.07,10.27a93.23,93.23,0,0,1,.79,23.48A87,87,0,0,1,165,161.55c-13.28,19.92-31.55,33.11-54.95,38.23-30.34,6.63-57.49-.48-80.73-21.21A86.56,86.56,0,0,1,2.71,134.22,90,90,0,0,1,28.59,46.64,88,88,0,0,1,77.72,23.31c8.42-1.18,16.8-.72,25.19.12a8.09,8.09,0,0,0,3-.21,48.37,48.37,0,0,0,17.6-9.33l.19-.16c2.84-2.72,2.53-5-1-6.54s-7.43-2.2-11.23-3A107,107,0,0,0,85.75,2.16,98.48,98.48,0,0,0,72.49,3.51C72,3.59,71.57,3.62,70.77,3.72Z"/><text class="cls-2" transform="translate(225 162)"><tspan class="cls-3">V</tspan><tspan x="113.81" y="0">erpu</tspan><tspan class="cls-4" x="445.18" y="0">r</tspan><tspan x="512.31" y="0">a</tspan></text></svg>