<?xml version="1.0" encoding="utf-8"?>
<!-- Generator: Adobe Illustrator 22.0.0, SVG Export Plug-In . SVG Version: 6.00 Build 0)  -->
<svg version="1.1" id="Layer_1" xmlns="http://www.w3.org/2000/svg" xmlns:xlink="http://www.w3.org/1999/xlink" x="0px" y="0px"
	 viewBox="0 0 827.442 230.38" style="enable-background:new 0 0 827.442 230.38;" xml:space="preserve">
<style type="text/css">
	.st0{fill:#87BB40;}
	.st1{fill:#333333;}
</style>
<g>
	<path class="st0" d="M79.046,12.162C136.9-3.322,199.255,30.711,214.048,92.645c14.921,62.47-25.194,118.197-78.392,131.798
		c3.423-1.321,6.82-2.701,10.116-4.314c21.498-10.518,38.024-26.248,49.461-47.282c6.334-11.649,10.35-24.077,12.104-37.209
		c1.924-14.412,1.254-28.732-2.634-42.754c-1.61-5.805-4.043-11.402-8.102-16.076c-5.183-5.968-11.975-7.451-19.177-4.171
		c-6.005,2.735-10.5,7.189-14.182,12.543c-5.248,7.631-8.879,16.084-12.356,24.603c-6.033,14.782-11.695,29.719-18.487,44.182
		c-2.087,4.445-4.274,8.842-6.339,13.103c-1.703-1.585-3.389-3.059-4.97-4.639c-16.771-16.755-29.795-36.141-40.056-57.427
		c-3.716-7.709-6.256-15.889-9.005-23.978c-1.888-5.555-3.864-11.059-6.72-16.24c-5.25-9.524-15.691-7.494-20.92-2.872
		c-3.762,3.325-5.471,7.675-6.058,12.533c-1.341,11.105,2.441,20.614,9.166,29.196c5.254,6.705,11.573,12.336,18,17.856
		c9.106,7.822,18.478,15.343,26.904,23.931c10.15,10.344,18.49,21.879,23.591,35.57c0.544,1.462,1.303,2.815,2.264,4.056
		c2.934,3.79,7.078,4.049,10.654,0.809c4.359-3.95,6.986-8.97,9.013-14.336c4.162-11.018,8.305-22.041,12.923-32.879
		c5.332-12.512,10.801-24.959,17.85-36.632c2.01-3.329,4.159-6.57,6.979-9.298c1.03-0.996,2.12-1.897,3.519-2.35
		c1.394-0.452,2.575-0.113,3.512,0.964c1.068,1.228,1.728,2.655,1.94,4.293c0.45,3.468,1.527,6.808,2.07,10.264
		c1.226,7.802,1.548,15.612,0.794,23.486c-1.41,14.729-6.085,28.326-14.28,40.619c-13.281,19.922-31.553,33.107-54.953,38.225
		c-30.336,6.634-57.486-0.476-80.734-21.208c-13.41-11.959-22.151-26.918-26.556-44.343c-2.726-10.779-3.392-21.715-2.012-32.766
		c2.701-21.63,12.032-39.945,27.888-54.814c13.844-12.982,30.299-20.699,49.139-23.335c8.418-1.178,16.799-0.723,25.19,0.119
		c1.007,0.101,1.994,0.047,2.943-0.21c6.566-1.778,12.323-5.102,17.598-9.326c0.067-0.054,0.136-0.108,0.198-0.167
		c2.838-2.717,2.53-4.965-1.038-6.54c-3.574-1.578-7.438-2.194-11.233-2.969c-8.454-1.726-17.012-2.387-25.632-2.055
		c-4.442,0.171-8.872,0.577-13.26,1.344C80.312,12.028,79.85,12.064,79.046,12.162z"/>
</g>
<g>
	<path class="st1" d="M291.997,171.268L250.431,69.992l-11.381-5.772v-2.64h41.236v2.64l-14.185,6.103v0.825l30.845,75.544h0.825
		l30.68-76.204v-0.66l-13.525-5.607v-2.64h34.638v2.64l-9.402,4.948L297.77,171.268H291.997z"/>
	<path class="st1" d="M389.81,172.092c-10.667,0-19.08-3.242-25.237-9.731c-6.16-6.487-9.237-15.064-9.237-25.731
		c0-8.247,1.621-15.53,4.866-21.855c3.242-6.321,7.53-11.27,12.865-14.845c5.333-3.572,11.134-5.36,17.402-5.36
		c8.685,0,15.53,3.025,20.536,9.071c5.002,6.049,7.505,14.737,7.505,26.062l-0.825,0.825h-49.318
		c0.108,5.059,1.098,9.813,2.969,14.268c1.869,4.453,4.866,8.056,8.99,10.804c4.124,2.75,9.649,4.123,16.577,4.123
		c6.046,0,13.139-2.198,21.278-6.598h0.495v1.649c-2.531,4.729-6.296,8.799-11.298,12.206
		C402.371,170.389,396.515,172.092,389.81,172.092z M387.83,101.827c-5.278,0-9.595,1.842-12.948,5.525
		c-3.355,3.686-5.417,8.881-6.186,15.587h37.277c-1.211-7.477-3.327-12.865-6.35-16.164
		C396.598,103.476,392.668,101.827,387.83,101.827z"/>
	<path class="st1" d="M435.498,170.443v-2.639l10.392-5.278v-49.153l-9.897-8.577v-1.155l20.453-9.071h0.989l1.484,14.021h0.66
		c2.529-4.067,4.865-7.119,7.01-9.155c2.145-2.033,4.15-3.353,6.021-3.958c1.867-0.604,3.736-0.907,5.607-0.907
		c0.879,0,1.896,0.165,3.051,0.495c1.156,0.329,2.117,0.659,2.887,0.989c1.209,0.552,2.336,1.211,3.383,1.979
		c1.043,0.771,1.566,1.649,1.566,2.639c0,0.99-0.223,1.979-0.66,2.969l-3.299,8.083h-1.154l-6.268-2.475
		c-1.211-0.549-2.393-0.879-3.547-0.989c-1.154-0.108-2.283-0.165-3.381-0.165c-4.619,0-8.523,2.366-11.711,7.093v47.339
		l11.711,5.278v2.639H435.498z"/>
	<path class="st1" d="M500.319,208.381v-2.64l10.392-5.278v-87.09l-9.896-8.577v-1.155l20.453-9.071h0.989l1.32,10.062h1.154
		c4.178-3.519,8.19-6.075,12.041-7.67c3.848-1.593,8.025-2.392,12.535-2.392c5.608,0,10.557,1.43,14.846,4.288
		c4.288,2.861,7.67,6.902,10.144,12.124c2.475,5.224,3.711,11.463,3.711,18.721c0,9.018-1.678,16.688-5.03,23.01
		c-3.355,6.324-7.892,11.134-13.608,14.433c-5.719,3.299-11.986,4.948-18.803,4.948c-6.16,0-11.712-0.552-16.66-1.649v30.02
		l11.711,5.278v2.64H500.319z M540.236,105.95c-2.64,0-5.361,0.412-8.165,1.237c-2.804,0.824-5.525,2.062-8.165,3.711v46.35
		c3.299,2.639,6.652,4.453,10.062,5.443c3.407,0.989,7.201,1.484,11.382,1.484c5.278,0,9.84-2.227,13.69-6.681
		c3.848-4.453,5.772-11.901,5.772-22.35c0-6.817-1.101-12.371-3.299-16.659c-2.201-4.289-5.17-7.448-8.907-9.484
		C548.867,106.968,544.744,105.95,540.236,105.95z"/>
	<path class="st1" d="M623.035,172.092c-6.489,0-11.793-1.624-15.917-4.866s-6.186-8.054-6.186-14.433V103.97l-10.392-5.113v-2.639
		h23.587v48.823c0,4.84,1.511,8.523,4.536,11.051c3.023,2.531,6.953,3.794,11.794,3.794c2.969,0,6.239-0.494,9.813-1.484
		c3.572-0.989,6.405-2.417,8.495-4.288V103.97l-11.711-5.113v-2.639h24.906v66.802l11.711,4.784v2.639h-24.906v-10.392h-0.825
		c-4.18,4.181-8.221,7.231-12.123,9.154C631.914,171.129,627.653,172.092,623.035,172.092z"/>
	<path class="st1" d="M687.032,170.443v-2.639l10.392-5.278v-49.153l-9.896-8.577v-1.155l20.453-9.071h0.989l1.484,14.021h0.66
		c2.528-4.067,4.865-7.119,7.01-9.155c2.145-2.033,4.149-3.353,6.021-3.958c1.868-0.604,3.737-0.907,5.608-0.907
		c0.879,0,1.896,0.165,3.051,0.495c1.155,0.329,2.116,0.659,2.887,0.989c1.209,0.552,2.335,1.211,3.382,1.979
		c1.044,0.771,1.566,1.649,1.566,2.639c0,0.99-0.222,1.979-0.659,2.969l-3.299,8.083h-1.155l-6.268-2.475
		c-1.211-0.549-2.392-0.879-3.546-0.989c-1.155-0.108-2.284-0.165-3.382-0.165c-4.618,0-8.522,2.366-11.711,7.093v47.339
		l11.711,5.278v2.639H687.032z"/>
	<path class="st1" d="M771.315,172.092c-5.17,0-9.459-1.513-12.866-4.536c-3.409-3.022-5.113-7.229-5.113-12.618
		c0-5.387,2.006-10.062,6.021-14.021c4.013-3.958,10.747-7.035,20.206-9.236l15.67-3.629v-12.041c0-3.737-1.513-6.953-4.536-9.649
		c-3.025-2.693-6.461-4.041-10.31-4.041c-4.18,0-7.092,1.129-8.741,3.382c-1.649,2.255-2.475,5.252-2.475,8.989v4.618l-0.824,0.825
		h-8.577c-1.649,0-2.778-0.273-3.382-0.825c-0.605-0.549-0.907-1.814-0.907-3.794c0-2.417,0.714-4.892,2.145-7.422
		c1.428-2.528,3.629-4.727,6.598-6.598c3.077-1.979,6.294-3.629,9.649-4.948c3.353-1.32,6.953-1.979,10.804-1.979
		c3.848,0,7.613,0.552,11.299,1.649c3.683,1.101,6.68,2.943,8.989,5.525c2.31,2.585,3.464,6.186,3.464,10.804v46.845
		c0.768,0.771,1.868,1.43,3.299,1.979c1.428,0.552,3.407,0.825,5.938,0.825h6.269l0.494,0.33v0.494
		c-1.319,2.421-3.272,4.536-5.855,6.351c-2.585,1.814-5.747,2.722-9.483,2.722c-3.41,0-6.186-0.907-8.33-2.722
		s-3.657-4.206-4.536-7.175h-0.989c-2.861,2.86-6.407,5.224-10.64,7.093C780.358,171.157,775.933,172.092,771.315,172.092z
		 M766.202,151.639c0,6.819,4.123,10.227,12.371,10.227c2.639,0,5.249-0.273,7.834-0.824c2.583-0.55,5.526-1.539,8.825-2.97v-24.411
		c-8.799,1.649-15.231,3.381-19.299,5.195c-4.069,1.814-6.709,3.769-7.917,5.855C766.804,146.802,766.202,149.111,766.202,151.639z"
		/>
</g>
</svg>
