<svg id="Layer_1" data-name="Layer 1" xmlns="http://www.w3.org/2000/svg" viewBox="0 0 816.15 216">
  <defs>
    <style>
      .cls-1 {
        fill: #87bb40;
      }

      .cls-2 {
        fill: #333;
      }
    </style>
  </defs>
  <title>Verpura</title>
  <path class="cls-1" d="M79.05,12.16c57.85-15.48,120.21,18.55,135,80.48,14.92,62.47-25.2,118.2-78.39,131.8,3.42-1.32,6.82-2.7,10.11-4.31a109.94,109.94,0,0,0,49.46-47.28,109.57,109.57,0,0,0,9.47-80,40.54,40.54,0,0,0-8.1-16.07c-5.18-6-12-7.45-19.18-4.17-6,2.73-10.5,7.19-14.18,12.54-5.25,7.63-8.88,16.08-12.35,24.6-6,14.78-11.7,29.72-18.49,44.18-2.09,4.45-4.27,8.85-6.34,13.11-1.7-1.59-3.39-3.06-5-4.64C104.32,145.67,91.3,126.29,81,105c-3.71-7.71-6.25-15.89-9-24a99.41,99.41,0,0,0-6.72-16.24c-5.25-9.52-15.69-7.49-20.92-2.87-3.76,3.33-5.47,7.68-6.06,12.53C37,85.55,40.77,95.06,47.5,103.64c5.25,6.71,11.57,12.34,18,17.86,9.1,7.82,18.47,15.34,26.9,23.93C102.55,155.77,110.89,167.31,116,181a15.25,15.25,0,0,0,2.27,4.05c2.93,3.79,7.07,4,10.65.81,4.36-4,7-9,9-14.33,4.16-11,8.31-22,12.93-32.88,5.33-12.51,10.8-25,17.85-36.63a44.86,44.86,0,0,1,7-9.3,9.13,9.13,0,0,1,3.52-2.35,3.06,3.06,0,0,1,3.52,1,8.12,8.12,0,0,1,1.94,4.29c.45,3.47,1.52,6.81,2.07,10.27a93.7,93.7,0,0,1,.79,23.48A87,87,0,0,1,173.23,170c-13.28,19.93-31.55,33.11-54.95,38.23-30.34,6.63-57.49-.48-80.74-21.21A86.48,86.48,0,0,1,11,142.67,90,90,0,0,1,36.86,55.09,88.08,88.08,0,0,1,86,31.75c8.42-1.18,16.8-.72,25.19.12a8,8,0,0,0,2.94-.21,48.34,48.34,0,0,0,17.6-9.32l.2-.17c2.84-2.72,2.53-5-1-6.54s-7.44-2.19-11.23-3A106.53,106.53,0,0,0,94,10.61,98.14,98.14,0,0,0,80.77,12C80.31,12,79.85,12.06,79.05,12.16Z" transform="translate(-8.28 -8.44)"/>
  <g>
    <path class="cls-2" d="M292,171.27,250.43,70l-11.38-5.77V61.58h41.24v2.64l-14.19,6.1v.83L297,146.69h.82l30.68-76.2v-.66l-13.53-5.61V61.58h34.64v2.64l-9.4,5-42.39,102.1Z" transform="translate(-8.28 -8.44)"/>
    <path class="cls-2" d="M389.81,172.09q-16,0-25.24-9.73t-9.23-25.73a47.3,47.3,0,0,1,4.86-21.86,38.57,38.57,0,0,1,12.87-14.84,30.65,30.65,0,0,1,17.4-5.36q13,0,20.53,9.07t7.51,26.06l-.83.83H368.37a38.23,38.23,0,0,0,3,14.26,23.78,23.78,0,0,0,9,10.81q6.19,4.13,16.58,4.12,9.08,0,21.28-6.6h.49v1.65A34.49,34.49,0,0,1,407.38,167,30.47,30.47,0,0,1,389.81,172.09Zm-2-70.26a16.72,16.72,0,0,0-12.95,5.52q-5,5.54-6.18,15.59H406q-1.82-11.22-6.35-16.16A15.24,15.24,0,0,0,387.83,101.83Z" transform="translate(-8.28 -8.44)"/>
    <path class="cls-2" d="M435.5,170.44V167.8l10.39-5.27V113.37L436,104.8v-1.16l20.46-9.07h1l1.48,14h.66a47.48,47.48,0,0,1,7-9.16,16.52,16.52,0,0,1,6-4,18,18,0,0,1,5.61-.91,11.28,11.28,0,0,1,3,.49,25.09,25.09,0,0,1,2.89,1,20,20,0,0,1,3.38,2,3.28,3.28,0,0,1,1.56,2.64,7.41,7.41,0,0,1-.65,3l-3.3,8.08H484l-6.27-2.47a11.11,11.11,0,0,0-3.54-1c-1.16-.11-2.29-.17-3.38-.17q-6.93,0-11.72,7.1v47.34l11.72,5.27v2.64Z" transform="translate(-8.28 -8.44)"/>
    <path class="cls-2" d="M500.32,208.38v-2.64l10.39-5.28V113.37l-9.9-8.57v-1.16l20.46-9.07h1l1.32,10.06h1.15a47.16,47.16,0,0,1,12-7.67,32.53,32.53,0,0,1,12.54-2.39,26.14,26.14,0,0,1,14.84,4.29A29.22,29.22,0,0,1,574.3,111Q578,118.81,578,129.7q0,13.53-5,23a35.25,35.25,0,0,1-13.61,14.43,37,37,0,0,1-18.8,5,77,77,0,0,1-16.67-1.65v30l11.72,5.28v2.64ZM540.24,106a28.71,28.71,0,0,0-8.17,1.24,32.8,32.8,0,0,0-8.17,3.71v46.35A29.26,29.26,0,0,0,534,162.69a40.68,40.68,0,0,0,11.38,1.49q7.92,0,13.69-6.69t5.77-22.34q0-10.23-3.3-16.66a21.72,21.72,0,0,0-8.9-9.49A25.53,25.53,0,0,0,540.24,106Z" transform="translate(-8.28 -8.44)"/>
    <path class="cls-2" d="M623,172.09q-9.72,0-15.91-4.86t-6.19-14.44V104l-10.39-5.11V96.22h23.59V145q0,7.26,4.53,11.05t11.8,3.8a37,37,0,0,0,9.81-1.49,20.85,20.85,0,0,0,8.5-4.29V104l-11.71-5.11V96.22H662V163l11.71,4.78v2.64h-24.9V160.05h-.83a47.33,47.33,0,0,1-12.12,9.16A28.61,28.61,0,0,1,623,172.09Z" transform="translate(-8.28 -8.44)"/>
    <path class="cls-2" d="M687,170.44V167.8l10.39-5.27V113.37l-9.89-8.57v-1.16L708,94.57h1l1.48,14h.66a47.48,47.48,0,0,1,7-9.16,16.6,16.6,0,0,1,6-4,18,18,0,0,1,5.61-.91,11.23,11.23,0,0,1,3,.49,24.43,24.43,0,0,1,2.89,1,19.57,19.57,0,0,1,3.38,2,3.29,3.29,0,0,1,1.57,2.64,7.26,7.26,0,0,1-.66,3l-3.3,8.08h-1.16l-6.26-2.47a11.17,11.17,0,0,0-3.55-1c-1.15-.11-2.28-.17-3.38-.17q-6.93,0-11.71,7.1v47.34l11.71,5.27v2.64Z" transform="translate(-8.28 -8.44)"/>
    <path class="cls-2" d="M771.32,172.09a18.7,18.7,0,0,1-12.87-4.53q-5.12-4.55-5.11-12.62a19,19,0,0,1,6-14q6-5.94,20.2-9.24l15.67-3.63V116a12.52,12.52,0,0,0-4.53-9.65,15.1,15.1,0,0,0-10.31-4q-6.27,0-8.74,3.38a14.9,14.9,0,0,0-2.48,9v4.62l-.82.83h-8.58a5.12,5.12,0,0,1-3.38-.83c-.61-.55-.91-1.81-.91-3.79a15,15,0,0,1,2.14-7.43,19,19,0,0,1,6.6-6.59,55.32,55.32,0,0,1,9.65-5,29.21,29.21,0,0,1,10.81-2A39.25,39.25,0,0,1,796,96.22a19.06,19.06,0,0,1,9,5.52q3.46,3.89,3.47,10.81v46.84a9.37,9.37,0,0,0,3.3,2,17,17,0,0,0,5.93.83h6.27l.5.33V163a18.81,18.81,0,0,1-5.86,6.35,16,16,0,0,1-9.48,2.72,12.41,12.41,0,0,1-8.33-2.72,14.53,14.53,0,0,1-4.54-7.17h-1a34.67,34.67,0,0,1-10.64,7.09A32.49,32.49,0,0,1,771.32,172.09Zm-5.12-20.45q0,10.23,12.37,10.23a37.62,37.62,0,0,0,7.84-.83,47.61,47.61,0,0,0,8.82-3V133.66q-13.2,2.47-19.3,5.2T768,144.71A13.49,13.49,0,0,0,766.2,151.64Z" transform="translate(-8.28 -8.44)"/>
  </g>
</svg>
